<svg xmlns="http://www.w3.org/2000/svg" viewBox="0 0 180 180" role="img" aria-labelledby="title desc">
  <title id="title">wtfradar iOS app icon</title>
  <desc id="desc">A Chromia-colored radar mark with concentric rings, a gold signal sweep, and a heart center.</desc>
  <defs>
    <linearGradient id="ios-bg" x1="22" y1="16" x2="158" y2="164" gradientUnits="userSpaceOnUse">
      <stop offset="0" stop-color="#8E58A5"/>
      <stop offset=".52" stop-color="#3F1525"/>
      <stop offset="1" stop-color="#24101B"/>
    </linearGradient>
    <radialGradient id="ios-glow" cx="57" cy="36" r="122" gradientUnits="userSpaceOnUse">
      <stop offset="0" stop-color="#F2C9DC" stop-opacity=".34"/>
      <stop offset=".43" stop-color="#D982AA" stop-opacity=".12"/>
      <stop offset="1" stop-color="#3F1525" stop-opacity="0"/>
    </radialGradient>
    <filter id="ios-shadow" x="-20%" y="-20%" width="140%" height="140%" color-interpolation-filters="sRGB">
      <feDropShadow dx="0" dy="8" stdDeviation="7" flood-color="#10060D" flood-opacity=".38"/>
    </filter>
  </defs>
  <rect width="180" height="180" rx="42" fill="url(#ios-bg)"/>
  <rect width="180" height="180" rx="42" fill="url(#ios-glow)"/>
  <g filter="url(#ios-shadow)">
    <circle cx="90" cy="92" r="58" fill="none" stroke="#F2C9DC" stroke-width="8" opacity=".78"/>
    <circle cx="90" cy="92" r="35" fill="none" stroke="#D982AA" stroke-width="9" opacity=".88"/>
    <path d="M90 92 129 47" stroke="#D9BF41" stroke-width="10" stroke-linecap="round"/>
    <circle cx="129" cy="47" r="10" fill="#D9BF41"/>
    <path d="M90 111c-13-10-24-19-24-31 0-8 6-14 14-14 5 0 9 2 12 6 3-4 7-6 12-6 8 0 14 6 14 14 0 12-11 21-28 31Z" fill="#F2C9DC"/>
  </g>
</svg>
